<svg version="1.2" xmlns="http://www.w3.org/2000/svg" viewBox="0 0 530 530" width="640" height="640">
	<title>image</title>
	<style>
		.s0 { fill: #010202 } 
		.s1 { fill: #a62d0e } 
		.s2 { fill: #d3401a } 
		.s3 { fill: #eba35e } 
		.s4 { fill: #c58a50 } 
		.s5 { fill: #f2dfc5 } 
	</style>
	<g id="Background">
		<path id="Path 0" class="s0" d="m330.5 1c-2.8 0.4-6.1 1.3-7.5 2-1.4 0.7-3.9 2.5-5.5 4.1l-3 2.9c-18.6-3.7-28.9-5.6-35-6.6-7.4-1.2-16.3-1.8-27.5-1.8-12.3 0-19.7 0.6-29.3 2.2-7.2 1.3-16.9 3.7-22.4 5.8-5.4 2-13.9 5.7-18.8 8.2-4.9 2.6-12.4 7.2-16.5 10.3-4.1 3.1-10 8.1-13 11-3 3-7.2 7.4-9.2 9.8l-3.8 4.4c-15.9-1.8-24.1-2.6-28.5-2.9-4.4-0.3-13 0-19 0.6-6 0.6-14.6 2.1-19 3.2-4.4 1.1-12 3.6-17 5.6-5 2-11.5 5.3-14.5 7.2-3 2-7.3 5.2-9.4 7.1-2.2 1.9-5.8 5.9-8.1 8.9-2.2 3-5.2 8.7-6.5 12.5-1.8 5.2-2.4 9.2-2.5 15.5 0 6.5 0.6 10.1 2.4 15.5 1.4 3.8 4.6 10.2 7.2 14 2.5 3.8 8 10.1 12 13.8 4.1 3.8 12 9.9 17.6 13.5 5.6 3.7 13.5 8.6 17.5 10.9l7.3 4.1c-4.1 16.8-6.2 27.1-7.3 33.7-1.2 6.6-2.6 16.7-3.1 22.5-0.6 5.8-1.3 13.4-1.5 17-0.3 3.6-0.5 8-0.5 9.7-0.1 2.7-0.7 3.6-3.4 5-1.7 0.9-5.8 4.1-9 7.2-3.3 3.1-7.8 8.3-10.2 11.6-2.3 3.3-5.2 8-6.5 10.5-1.3 2.5-2.9 6.3-3.7 8.5-0.9 2.2-2.4 7.1-3.5 11-1.2 4.4-2.1 11.9-2.5 20-0.4 9.8-0.2 15.4 1.1 23 1 5.5 3.1 14.1 4.7 19 1.7 4.9 5.1 13.1 7.6 18 2.4 4.9 7.9 14.2 12.1 20.5 4.2 6.3 11.7 15.7 16.7 20.9 5 5.1 12.6 12.2 17 15.6 4.4 3.4 13 9.3 19.2 13.1 6.2 3.8 11 7.2 10.8 7.6-0.3 0.5 0.2 1 1 1.3 0.8 0.3 1.5 1.1 1.5 1.7 0 0.7 2.6 4.4 5.7 8.3 3 3.9 8.3 9.7 11.7 13 3.3 3.3 9.3 8.2 13.1 10.9 3.8 2.7 7.7 5.1 8.5 5.4 0.8 0.3 2.2 1 3 1.7 0.8 0.6 4.2 2.1 7.5 3.3 3.3 1.2 10.1 3.1 15 4.3 7.1 1.7 12.2 2.2 24.5 2.2 14.7 0 16.2-0.2 29.5-3.7 11.7-3.1 16-4.8 26.5-10.5 8.8-4.8 14.7-7.3 20-8.5 4.1-0.9 11.6-2.6 16.5-3.8 4.9-1.1 13.1-3.1 18-4.5 4.9-1.3 11.5-3.1 14.5-3.9 3-0.9 6.4-2.2 7.5-2.9 1.1-0.7 3.6-1.6 5.5-2 2.1-0.4 3-1 2.2-1.3-0.8-0.4 0.6-1.4 3.5-2.6 2.6-1 8.2-3.6 12.3-5.8 4.1-2.2 9.4-5.5 11.7-7.4l4.3-3.4c12.7 4.4 18.4 5.5 23.5 5.7 4.9 0.3 9.7-0.1 12.4-0.9 2.4-0.7 4.8-2 5.4-2.8 0.8-1.1 0-3.1-3.1-8-2.3-3.6-4-6.6-3.9-6.7 0.1-0.1 2.4 0.4 5.2 1.3 2.7 0.8 7.7 1.4 11 1.4 3.3 0 8.5-0.7 11.5-1.6 3-0.9 7.9-3.2 10.7-5 2.9-1.9 5.6-4.2 6-5.2 0.4-1.1-0.1-2.1-1.3-3-1-0.7-2.8-1.2-3.9-1.2-1.1 0-4.3-1.1-7-2.3-2.8-1.3-7-4.3-9.5-6.7l-4.5-4.4c11.6-1.9 17.3-3.2 20-4.3 2.7-1 7.9-3.5 11.5-5.5 3.6-2 9.6-6.5 13.5-10 3.9-3.6 9.9-10.7 13.5-15.9 3.5-5.2 8.3-13.5 10.6-18.4 2.4-4.9 5.4-13.1 6.9-18 1.4-4.9 3-13.1 3.6-18 0.6-6.2 0.6-11.3-0.1-16.5-0.6-4.1-1.8-10-2.7-13-0.9-3-2.4-7.3-3.4-9.5-1-2.2-3.1-5.9-4.8-8.3-1.7-2.3-3.1-4.4-3.1-4.7 0-0.3 2.5-3.3 5.6-6.8 3-3.4 6.7-8.7 8.2-11.7 2-4.1 2.7-7 2.7-11.5v-6c-12.4-0.2-19.4-1-23.5-2-4.1-0.9-7.6-1.7-7.8-1.8-0.2-0.1 0.9-5.6 2.3-12.2 1.5-6.6 3.3-17.4 4.2-24 1.1-8.5 1.3-16.9 1-29-0.4-11.8-1.2-20.1-2.7-27-1.2-5.5-3.5-14.1-5.2-19-1.6-4.9-5.4-13.7-8.3-19.5-3-5.8-8.9-15.2-13.1-21-4.3-5.8-12.6-15.2-18.4-21-5.8-5.8-14.3-13.3-19-16.6-4.7-3.3-13.9-9.3-20.5-13.4-6.6-4-14.7-8.5-18-10-5.8-2.6-6-2.8-6.8-7.3-0.4-2.6-1.5-6.4-2.6-8.5-1-2-4.3-5.9-7.2-8.5-3.7-3.3-7.3-5.4-11.4-6.7-3.3-1.1-8-2.2-10.5-2.5-2.5-0.3-6.1-0.7-8-0.9-1.9-0.2-5.8 0-8.5 0.4z"/>
		<path id="Path 1" class="s1" d="m86.5 68.1c-4.4 0.5-12 2.1-17 3.5-5 1.4-11.5 3.9-14.5 5.4-3 1.5-7.4 4.2-9.8 5.9-2.3 1.7-5.9 5.5-8.1 8.4-2.1 2.8-4.4 6.8-5 8.7-0.6 1.9-1.2 6.2-1.3 9.5-0.1 3.5 0.6 8.1 1.6 11 1 2.8 2.4 6.1 3.1 7.5 0.7 1.4 3.2 4.8 5.6 7.7 2.4 2.8 7.8 7.9 11.9 11.2 4.1 3.4 12.5 8.8 18.5 12.1 6 3.3 11.5 6 12 6 0.5 0 3.9-4.4 7.4-9.7 3.7-5.6 10.1-13.4 15-18.4 4.8-4.7 11.7-10.4 15.6-12.7 3.8-2.2 10.2-5.4 14-7 3.8-1.6 10.8-3.8 15.5-5 4.7-1.2 11.9-2.7 16-3.4 4.6-0.8 14.9-1.2 26.5-1.1 15.2 0.1 22.1 0.7 34.5 2.7 8.5 1.4 18.7 3.5 22.5 4.6 3.8 1.1 7.2 1.7 7.5 1.5 0.3-0.3 0.9-0.1 1.5 0.4 0.6 0.5 4.1 1.8 8 3 5.2 1.6 7.3 1.8 8 1q1.1-1.2-0.2-0.5c-0.7 0.3-1.3 0.2-1.3-0.4 0-0.5-2.6-2.3-5.8-3.8-3.1-1.5-11.6-5.8-18.7-9.4-7.2-3.7-19.1-9.1-26.5-12.1-7.4-3-18.9-7.2-25.5-9.5-6.6-2.2-17.2-5.4-23.5-7.1-6.3-1.7-17.3-4.2-24.5-5.6-7.2-1.4-18.4-3.2-25-3.9-6.6-0.7-16-1.3-21-1.4-5 0-12.6 0.4-17 0.9z"/>
		<path id="Path 2" class="s2" d="m334.6 14.8c-0.3 0.4 4.6 2.6 11.1 4.9 6.5 2.4 12.2 4 12.6 3.5 0.4-0.4-0.7-2.1-2.5-3.8-2.1-1.9-5.2-3.5-8.6-4.2-2.8-0.7-6.7-1.2-8.5-1.2-1.9 0-3.7 0.3-4.1 0.7zm-107.6 3.9c-5.8 0.8-15.4 3.1-21.5 5.2-6.1 2-14.6 5.7-19 8.2-5.2 2.9-11.1 7.5-16.7 13-4.8 4.7-8.8 9-8.8 9.5 0 0.5 5.7 2.6 12.8 4.7 7 2 19.7 6.1 28.2 9.1 8.5 3.1 22.7 8.5 31.5 12.2 8.8 3.6 20.9 9 27 11.8 6 2.9 13.7 6.6 17 8.3 3.3 1.7 12.5 6.8 20.5 11.4 8 4.6 19.9 11.9 26.5 16.4 6.6 4.4 17.4 12.1 24 17 6.6 5 17.2 13.6 23.5 19.2 6.3 5.6 16 14.3 21.5 19.4 5.5 5.2 15.2 13.5 21.5 18.6 6.3 5 17.6 14.2 25 20.3 7.4 6.1 15.7 12.5 18.5 14.1 2.7 1.6 5.7 3 6.5 3 1.1 0 2.1-2.8 3.7-10.7 1.2-6 2.7-15.5 3.4-21.3 0.7-6.3 0.9-16.9 0.6-26.5-0.4-10.5-1.2-19.1-2.6-25-1.1-4.9-2.9-11.9-4.1-15.5-1.1-3.6-4.3-11-7.1-16.5-2.7-5.5-8-14-11.7-19-3.7-5-10.7-13-15.7-17.9-4.9-4.9-12.2-11.4-16-14.5-3.9-3-9.6-7.4-12.9-9.6-3.2-2.2-6.5-4.5-7.2-5-0.7-0.5-1.7-0.7-2.1-0.3-0.4 0.5-0.1 1.6 0.8 2.5 0.9 1 3.3 5.2 5.3 9.3 1.9 4.1 4.6 11.8 6 17 1.3 5.2 3 13.3 3.7 18 0.8 5.6 1 14.5 0.6 26-0.3 9.6-1 20-1.6 23-0.7 3-1.9 8.2-2.8 11.5-0.9 3.3-2.5 6.9-3.5 8-1.8 2-1.8 2-2-1 0-1.7-0.1-5 0-7.5 0.1-2.5 0.2-12.6 0.2-22.5 0.1-9.9-0.4-22.3-1-27.5-0.6-5.2-1.8-12.2-2.6-15.5-0.9-3.3-2.4-8.5-3.3-11.5-1-3-3.4-8.7-5.4-12.5-1.9-3.8-5-9.3-6.9-12.2-1.8-2.9-5.8-7.8-8.8-10.9-3.6-3.6-8.1-7-13-9.4-4.1-2.1-12.7-5.8-19-8.3-6.3-2.5-17.1-6.2-24-8.2-6.9-2-18.6-4.7-26-6.1-10.8-2.1-17.4-2.7-33-3-13.7-0.2-22.6 0.1-30 1.2z"/>
		<path id="Path 3" class="s3" d="m182.5 123.6c-1.7 0.2-6.4 0.9-10.5 1.5-4.1 0.6-11.3 2.2-16 3.6-4.7 1.4-11.2 3.7-14.5 5.2-3.3 1.5-8.7 4.5-12 6.8-3.3 2.2-8.2 6.4-10.8 9.4-2.7 3-7.5 10.1-10.7 15.9-3.2 5.8-7.4 14.1-9.3 18.5-1.9 4.4-5 12.9-7 19-1.9 6.1-3.8 12.6-4.1 14.5-0.4 1.9-0.9 5.3-1.2 7.5-0.3 2.2-1.2 8.5-2 14-0.7 5.5-1.3 16.2-1.4 23.8v13.7c-11.4 5.2-15.4 8.1-19.6 12.3-3.3 3.4-7.9 9.3-10.2 13.2-2.2 3.9-5.3 10.6-6.9 15-2.6 7.6-2.8 8.9-2.8 25 0 14.7 0.4 18.2 2.4 25.5 1.2 4.7 4.3 13 6.7 18.5 2.5 5.5 7.5 14.5 11.1 20 4.6 6.9 10.7 14.1 19.7 23 7.2 7.2 17.3 16.1 22.4 19.8l9.2 6.7c0-14.8 0.4-19.2 1-19.5 0.6-0.3 2.4 3.2 4.1 7.8 1.8 4.5 4.9 11.6 7 15.7 2.1 4.1 6.8 11.6 10.4 16.5 3.6 4.9 9.4 11.4 12.8 14.4 3.4 3 8.5 6.8 11.2 8.5 2.8 1.7 7.5 4.3 10.5 5.8 3 1.4 8.9 3.7 13 5 6.6 2 9.5 2.3 24.5 2.3 14.7 0 18.2-0.3 26-2.4 4.9-1.3 12.8-4 17.5-6 4.7-2 11.9-5.9 16-8.6 4.1-2.7 10.8-8.1 14.8-12 4.6-4.4 7.6-6.6 8.1-6 0.5 0.6 0.5 3.6 0 7-0.5 3.3-0.8 6.1-0.7 6.3 0.2 0.1 4.1-0.7 8.8-1.9 4.7-1.1 12.6-3.6 17.5-5.4 4.9-1.8 12.1-4.7 16-6.4 3.9-1.8 11.9-6.5 18-10.5 6.1-4.1 14.6-10.9 19.1-15.2 4.5-4.4 10.9-11.7 14.4-16.4 3.4-4.7 8-12.1 10.3-16.5 2.2-4.4 5.2-11.3 6.6-15.4 1.4-4.1 3.4-7.9 4.4-8.5 1.5-0.9 2.2-0.6 4 1.9 1.2 1.6 4.2 5.2 6.7 7.8 3.5 3.8 5.7 5.2 10 6.4 3.6 1 7.2 1.3 10.5 0.9 2.8-0.4 8-2.1 11.7-3.9 3.7-1.7 9.1-5.2 12-7.6 2.9-2.5 7.3-6.8 9.7-9.5 2.4-2.8 6.1-8 8.2-11.6 2.2-3.6 5.3-10.1 7-14.5 1.6-4.4 4-11.8 5.1-16.5 1.3-5.1 2.2-11.7 2.2-16.5 0-4.4-0.6-10.8-1.4-14.3-0.8-3.4-1.9-6.2-2.4-6.2-0.5 0-0.6-0.3-0.3-0.7 0.3-0.5-0.3-2.5-1.3-4.5-1.1-2.1-4.4-6.1-7.2-8.8-2.9-2.8-7.1-5.9-9.3-6.9-2.2-1-6.2-2.4-9-3.1-3.9-1.1-6.2-1.1-10.5-0.2-3.2 0.7-8.2 2.9-12 5.3-3.6 2.3-8.5 6.3-11 8.9-2.5 2.6-6.5 8.5-9 13.1-2.4 4.6-5.2 9.2-6.2 10.2-1 0.9-3.2 1.7-4.8 1.7-1.6 0-4.7-0.9-6.7-1.9-2.1-1.1-5.4-3.7-7.4-5.8-2-2.1-5-5.8-6.6-8.3-1.7-2.5-4.2-7.4-5.6-11-1.4-3.6-3-9.8-3.6-13.7-0.6-4-1.1-11-1.1-15.5 0-4.6 0.5-12.4 1-17.3 0.6-4.9 1.7-12.4 2.6-16.5 0.8-4.1 2.7-12.6 4.2-18.9l2.7-11.3c-14.7-13.8-21.9-20.2-25.5-23.2-3.6-3-11.7-8.9-18-13.1-6.3-4.3-19.6-11.7-29.5-16.5-9.9-4.9-23.2-10.7-29.5-12.9-6.3-2.2-18.2-5.8-26.5-8.1-8.2-2.2-19.9-4.9-26-6.1-7.9-1.5-16.2-2.2-29.5-2.4-10.2-0.2-19.8-0.1-21.5 0.1z"/>
		<path id="Path 4" fill-rule="evenodd" class="s0" d="m163.8 138.1c5.2-0.1 7.3 0.4 12.9 3.3 3.8 1.9 8.2 4.9 10 6.8 1.7 1.8 4.1 5.3 5.2 7.8 1.1 2.5 2.1 5.9 2.1 7.5 0 1.7-0.5 3.8-1.2 4.9-1 1.4-2.1 1.7-4.8 1.3-1.9-0.2-6.4-1.7-10-3.3-4.1-1.8-8.9-2.9-13-3.2-4-0.3-9 0.2-13 1.2-3.6 0.9-9.2 3-12.5 4.6-3.3 1.7-8.9 5.5-12.5 8.6-3.6 3.1-7.2 6-8 6.5-0.9 0.5-2.3 0.3-3.4-0.4-1.5-1-1.8-2.1-1.3-6.2 0.2-2.7 1.5-7 2.7-9.5 1.3-2.5 3.9-7 5.9-10 2-3.1 6.2-7.3 9.6-9.8 3.3-2.4 8.5-5.2 11.5-6.3 3-1.2 7.3-2.4 9.5-2.9 2.2-0.4 6.8-0.8 10.2-0.9zm119.8 14c2.7 0 7.9 0.6 11.5 1.5 3.6 0.8 9.6 3.2 13.5 5.2 3.8 2 9.2 6 12 8.7 2.8 2.8 6.8 7.9 8.9 11.5 2.1 3.6 4.7 9 5.7 12 1.1 3 1.9 7.2 1.9 9.3 0 2-0.4 4.8-1 6.2-0.6 1.4-1.8 2.5-2.8 2.5-0.9 0-4.4-3-7.6-6.7-3.3-3.8-8-8.5-10.5-10.6-2.5-2-7.5-5.3-11.1-7.1-3.6-1.9-9.2-4.2-12.5-5-3.3-0.9-9.8-1.6-14.5-1.6-4.7 0-11.1 0.6-14.3 1.3-4.2 0.9-6.2 0.9-7.5 0.1-1-0.6-1.8-2.6-2-4.8-0.1-2.1 0.6-5.3 1.8-7.6 1.1-2.2 3.5-5.1 5.2-6.4 1.8-1.3 4.9-3.2 6.8-4.2 1.9-0.9 5.3-2.3 7.5-3 2.2-0.7 6.2-1.3 9-1.3zm-135 55.4c2.2 0.4 5.3 1.5 7 2.5 1.6 1 4.3 3.1 5.9 4.7 1.5 1.5 3.7 4.6 4.8 6.8 1.2 2.2 2.7 6 3.4 8.5 0.8 2.5 1.7 8.6 2 13.5 0.4 5.3 0.2 12-0.5 16.5-0.7 4.1-1.1 7.6-0.9 7.7 0.2 0.1 3-0.5 6.3-1.2 3.3-0.7 7.7-1.6 9.7-1.9 3.3-0.5 4-1.1 5.2-4.3 0.7-2.1 2.2-8.4 3.2-14.1 1.6-8.4 2.2-10.2 3.6-10.2 1.1 0 2.2 1.2 2.8 3.3 0.6 1.7 1 5.9 1 9.2-0.1 3.3-0.5 8.3-1.1 11-0.5 2.8-1.1 6.6-1.4 8.5-0.5 3.2-0.2 3.7 3.5 6.3 2.2 1.5 4 3.4 4 4.2 0 0.8-0.3 1.5-0.8 1.5-0.4 0-2.5-0.5-4.7-1-2.2-0.6-8.6-1-14.3-1-6 0-12.8 0.7-16.5 1.6-3.4 0.8-8 2.6-10.2 3.8-2.2 1.3-5.7 4.3-7.7 6.7-2 2.4-4.7 6.7-5.9 9.4-1.6 3.5-2.4 7.5-2.7 13.5-0.3 8-0.2 8.8 3 15 2.3 4.6 4.7 7.6 8.3 10.2 2.7 2.1 6.8 4.7 9 5.7 2.2 1 6.9 2.7 10.5 3.6 4.6 1.2 9 1.6 15 1.3 6.9-0.4 9.8-1.1 15.5-3.7 6.2-2.9 7.6-3.2 12.5-2.7 4.6 0.6 6.2 0.3 10-1.6 3.5-1.8 5.1-3.6 7.3-7.8 2.6-5 2.8-6.3 2.6-15-0.1-5.2-0.1-10.1 0-10.7 0-0.7 0.8-1.3 1.6-1.3 0.8 0 2.8 0.8 4.5 1.8 1.6 0.9 4.2 4 5.7 6.7 1.4 2.8 2.9 7 3.8 13.7l8 2.9c5.1 1.8 11.7 5.4 18 9.7 8.4 5.7 11.3 7.1 18 8.7 6.9 1.6 8.6 1.7 12.5 0.6 2.5-0.7 5.7-2.4 7.3-3.9 1.5-1.5 3.5-4.9 4.5-7.6 0.9-2.7 2.4-5.1 3.2-5.3 0.8-0.3 2.8 0.1 4.4 0.8 1.6 0.8 4.9 3.7 7.3 6.4 2.3 2.8 5.6 7.7 7.3 11 1.7 3.3 3.5 8.7 4.1 12 0.8 4.4 0.8 7.1 0 10.3-0.8 3.1-1.6 4.1-2.8 4-1.2-0.2-2.2-2.1-3.3-6.4-0.8-3.4-1.7-6.4-2-6.8-0.3-0.3-2.3 2.3-4.5 6-2.2 3.6-5.8 8.4-8 10.5-2.2 2.2-6.5 5.2-9.5 6.7-3.3 1.6-7.7 2.8-16.5 3.4l-2.4 6.6c-1.3 3.7-3.4 9.2-4.8 12.2-1.4 3-4.7 8.9-7.3 13-2.7 4.2-8.9 11.5-14.2 16.5-5.1 5-12.9 11.4-17.3 14.3-4.4 2.9-11.6 6.6-16 8.3-4.4 1.7-11.3 3.7-15.3 4.5-3.9 0.8-11.4 1.4-16.5 1.4-5 0-12.1-0.5-15.7-1.1-3.6-0.5-9.7-2.1-13.5-3.5-3.9-1.3-9.4-3.9-12.4-5.7-3-1.7-8.4-5.9-11.9-9.2-3.6-3.3-9-9.4-12.2-13.5-3.1-4.1-7.4-10.2-9.5-13.5-2.1-3.3-5.7-9.8-8-14.5-2.2-4.7-5.9-13.4-12-30.1l-4 0.8c-2.2 0.4-7.4 0.8-11.5 0.7-5.9 0-8.7-0.6-13-2.6-3.4-1.6-7.3-4.7-10.3-8-2.8-3.1-5.5-7.4-6.5-10.3-1.1-3.2-1.7-8.2-1.7-14 0-8.1 0.3-9.7 3.2-15.5 1.7-3.6 4.3-7.6 5.7-9 1.7-1.6 3.1-2.2 4.1-1.7 0.8 0.4 1.5 2 1.5 3.7 0 1.6 0.6 4.5 1.3 6.3 0.8 1.7 2.7 4.2 4.3 5.5 2.1 1.6 4.1 2.2 7.4 2.2 2.5-0.1 6.8-1.1 9.6-2.3 2.8-1.2 9.9-4.9 15.7-8.2 10.4-5.9 10.7-6.1 10.1-9-0.3-1.6 0.1-5.8 1-9.2 0.9-3.5 2.7-8.4 4-11 1.4-2.7 3.9-6.4 8.7-11.8l-3.4-3.5c-1.9-1.9-4-4.6-4.7-6-0.7-1.4-1.2-4.7-1.2-7.5 0-2.7 0.8-6.8 1.7-9 0.9-2.2 2.7-5.5 4.1-7.2 1.3-1.8 3.7-4 5.4-4.8 1.7-0.8 5.7-1.5 9-1.5 5.2 0 5.9-0.2 5.6-1.7-0.2-1-0.7-3.4-1-5.3-0.3-2-1.8-4.6-3.3-6.1-1.6-1.5-4.3-3.4-6.1-4.3-1.7-0.9-4.1-1.6-5.2-1.6-1.1 0-3.2 0.6-4.8 1.4-1.5 0.7-4.1 2.9-5.7 4.7-1.8 2-4.1 6.7-5.7 11.4-1.5 4.4-3.1 10.9-3.7 14.5-0.6 3.6-1.1 8.5-1.1 11 0 2.5-0.4 5.2-0.9 6-0.6 0.9-1.5 1.2-2.5 0.8-1.3-0.7-1.6-2.8-1.6-12.5 0-8.7 0.5-14 2.1-20.3 1.2-4.7 3.8-11.9 5.9-16 2.1-4.1 5.5-9.2 7.6-11.4 2.2-2.1 5.7-4.7 7.9-5.8 2.8-1.3 5.2-1.7 8-1.3zm134 16.5c1.6 0 5.4 1.2 8.4 2.7 3 1.6 6.6 4.4 8.1 6.3 1.5 1.9 3.7 5.4 4.9 7.8 1.1 2.3 2.8 7.2 3.7 11 1.1 4.3 1.7 11.1 1.7 18.7 0 10.3-0.3 12.8-2.3 18-1.3 3.3-3.8 7.5-5.4 9.3-1.7 1.8-4.9 4-7.1 4.9-2.5 1-5.3 1.3-7.5 0.9-1.9-0.4-5-1.9-6.9-3.4-1.9-1.5-4.3-4.5-5.3-6.7-1.1-2.5-1.8-6.4-1.8-10.5 0-4.7 0.7-7.9 2.3-11.5 1.3-2.7 3.9-6.4 5.8-8.1 1.9-1.7 4.8-3.4 6.4-3.8 1.6-0.4 4.8-0.3 7 0.3 2.2 0.6 4.1 0.9 4.2 0.8 0.1-0.1-0.2-1.8-0.8-3.7-0.5-1.9-2-5.5-3.2-8-1.3-2.5-3.9-5.6-5.8-6.8-2.6-1.8-4.4-2.3-8-2-3.1 0.2-5.7 1.2-8.4 3.3-2.2 1.7-5.5 5.5-7.5 8.5-2 3-4.4 8.4-5.3 12-1 3.6-2.1 10.3-2.5 15-0.5 6.5-1 8.5-2.2 8.5-0.9 0-1.7-1.6-2.3-4.5-0.4-2.5-0.6-9-0.3-14.5 0.3-7.2 1.2-12.1 3.1-17.5 1.4-4.1 3.5-9.1 4.7-11 1.2-1.9 3.7-5.2 5.7-7.4 2-2.1 5.8-4.9 8.6-6.2 2.7-1.3 6.4-2.4 8-2.4zm-181.5 59.4c5.1 0.2 9.5 1.2 14 3.1 3.6 1.5 7.2 3.3 8 4.1q1.5 1.4 0.5 2.4c-0.7 0.7-3.7 0.4-9.5-1-5.6-1.3-12-2-18.8-2-5.6 0-10.4-0.3-10.6-0.7-0.3-0.5 0-1.4 0.5-2.1 0.6-0.7 2.7-2 4.7-2.8 2.5-1 6.1-1.3 11.2-1zm243.5 1.7c2.8 0 5.9 0.6 7 1.4 1.5 1.1 1.7 1.7 0.8 2.7-0.6 0.8-4 1.4-8 1.6-3.7 0.1-10 1-14 2-4 0.9-7.5 1.4-7.8 1-0.3-0.5-0.3-1.2 0-1.8 0.3-0.6 2-1.8 3.7-2.7 1.8-0.9 5.5-2.2 8.3-2.9 2.7-0.7 7.2-1.3 10-1.3zm-12.4 15.2c10.6 0.2 12 0.4 17.5 3.2 3.6 1.9 6.1 3.8 6.3 5 0.3 1.7 0 1.9-2.5 1.3-1.6-0.4-6.3-1.5-10.4-2.4-4.1-0.9-12.7-1.8-19-2-6.3-0.2-11.6-0.4-11.8-0.6-0.1-0.2 0.3-0.8 1-1.4 0.7-0.6 2.7-1.6 4.3-2.2 1.7-0.7 7.9-1.1 14.6-0.9zm132.9 11.8c1.4 0 4 0.8 5.7 1.9 2.5 1.5 3.5 2.9 3.9 5.8 0.3 2 0.1 4.7-0.5 6-0.6 1.2-1.7 2.2-2.4 2.2-0.6 0.1-1.9-0.6-2.7-1.5-0.8-0.9-3-1.6-4.8-1.5-1.7 0-4.9 0.9-7 1.9-2 1-4.5 2.7-5.4 3.7-1.7 1.8-1.6 2 2 4.4 2.3 1.6 4.8 4.6 6.5 8 1.7 3.3 3 7.9 3.4 11.5 0.3 3.3 0.3 8-0.1 10.5-0.4 2.7-2.2 6.9-4.5 10.5-2.8 4.3-5.4 6.8-9.1 9-4.4 2.5-5.3 2.8-6 1.5-0.5-1 0.6-4.2 3.2-9 2.7-5.3 4-9.3 4.5-13.5 0.4-4.1 0-7.8-1.1-11.7-1.1-4-2.5-6.4-4.4-7.8-1.5-1.2-3.3-2.1-4-2-0.6 0-3.6 3.2-6.5 7.1-3.1 4.2-5.8 6.9-6.7 6.7-0.9-0.2-1.6-1.7-1.8-3.8-0.2-2.6 0.9-5.9 4.1-12.5 2.5-4.9 6.7-11.5 9.5-14.5 2.7-3 7.3-6.8 10.3-8.4 3-1.7 6.8-3.3 8.4-3.7 1.6-0.4 4.1-0.7 5.5-0.8zm-295.8 163.9c0.2 0 4.8 1.3 10.3 3 5.5 1.7 13.2 3.5 17 4.1 3.8 0.5 9.9 0.7 13.5 0.4 3.6-0.3 9.1-0.6 12.2-0.8 3.1-0.1 6 0.2 6.5 0.6 0.4 0.5-0.8 2.2-2.7 3.8-1.9 1.6-5.9 3.8-8.8 4.9-3.6 1.4-7.7 2-13.4 2-4.7 0-10.7-0.7-13.8-1.6-3-0.9-7.1-2.5-9-3.7-1.9-1.2-5.4-4-7.8-6.2-2.4-2.2-4.3-4.6-4.2-5.2 0-0.7 0.1-1.3 0.3-1.3z"/>
		<path id="Path 5" class="s4" d="m226.5 327.7c-4.4 1.3-12.3 4-17.5 6-5.2 1.9-11.3 3.9-13.5 4.3-2.2 0.3-9.1 0.3-15.3-0.2-10.2-0.7-11.9-1.2-19.4-4.8-4.6-2.2-9.3-4-10.6-4-1.2 0-2.2 0.3-2.2 0.8-0.1 0.4 1 2 2.2 3.6 1.3 1.6 4.8 4.6 7.8 6.7 3 2 8.4 4.7 12 6 5.3 1.9 8.5 2.4 17.5 2.4 10.4 0 11.4-0.2 18-3.3 6.2-3 7.6-3.3 12.5-2.8 4.6 0.6 6.2 0.3 10-1.7 2.9-1.5 5.3-3.7 6.7-6.3 1.2-2.1 2.4-5.1 2.7-6.6 0.5-2.2 0.2-2.8-1.2-2.7-0.9 0.1-5.3 1.2-9.7 2.6zm229.2 0.3c-2.6 1.6-4.9 3.3-5.2 3.8-0.2 0.4 1.2 1.8 3.3 3.2 2.2 1.5 4.9 4.8 6.6 8 2.4 4.4 3 7 3.4 13.5 0.2 4.4 0.7 7.6 1.2 7 0.4-0.6 1.7-4.1 2.9-8 1.1-3.9 2.9-11.5 4-17 1.1-5.5 2.3-10.9 2.6-12 0.6-1.8 0.5-1.8-0.4-0.2-0.6 0.9-1.7 1.7-2.3 1.7-0.7 0.1-2-0.6-2.8-1.5-0.8-0.9-3-1.6-5-1.5-2.1 0-5.4 1.2-8.3 3zm-20 21.1c-4.4 5.9-5.6 7-7.4 6.5-2.3-0.6-2.3-0.4-2.3 8.7 0 7.8 0.4 10 2.4 14.2 1.4 2.8 3.5 6 4.8 7.3 1.3 1.2 4.1 2.5 6.3 2.8 2.9 0.5 5.1 0.1 8-1.4 2.2-1.1 4.7-2.7 5.5-3.7 0.9-1-0.4-0.5-3.3 1.2-3.7 2.1-5.1 2.5-6 1.6-0.9-0.9-0.5-2.4 2-6.5 1.7-2.9 3.8-7.8 4.7-10.8 0.9-3 1.6-7.1 1.6-9 0-1.9-0.7-5.9-1.5-8.7-1-3.5-2.4-6-4.2-7.3-1.6-1.2-3.4-2.1-4.1-2-0.7 0-3.6 3.2-6.5 7.1z"/>
		<path id="Path 6" class="s5" d="m137.1 226.9c-1.9 1-4.4 3.1-5.5 4.7-1.2 1.6-3.3 6.5-4.8 10.9-1.5 4.4-3.1 10.9-3.7 14.5-0.6 3.6-1.1 8.6-1.1 11.2 0 2.7-0.6 5.4-1.3 6-1.1 1.1-1.1 1.6 0.2 3.1 0.9 1.1 4 3 6.9 4.3 2.8 1.3 6.5 2.4 8.2 2.4 1.7 0 3.1 0.4 3.3 1 0.1 0.6 0.8 0.6 1.7 0 1.2-0.7 0.9-1.4-1.8-4.2-1.9-1.8-4.1-4.7-4.9-6.3-0.9-1.6-1.6-5.3-1.6-8 0-2.9 0.9-7.1 2.2-10 1.1-2.8 3.7-6.6 5.6-8.5 3.4-3.2 4.1-3.5 10.6-3.8l6.9-0.2c0-6-0.9-8.9-2.2-11-1.3-1.9-4.3-4.5-6.8-5.8-2.5-1.2-5.4-2.2-6.5-2.2-1.1 0-3.5 0.8-5.4 1.9zm138.4 14.8c-1.6 0.8-4 2.5-5.3 3.7-1.3 1.1-3.6 4.1-5.2 6.6-1.6 2.5-3.8 7.2-4.9 10.5-1.1 3.3-2.3 10.2-2.8 15.4-0.7 7.8-1.1 9.5-2.5 9.8-1.7 0.3-1.7 0.5-0.1 3.5 0.9 1.8 2.6 4.6 3.7 6.1 1.2 1.6 3.5 3.7 5.1 4.7 1.6 1 5.5 2.2 8.5 2.6 3 0.5 6.1 0.7 6.8 0.6 0.6-0.1 2.6-0.2 4.2-0.2 1.6 0 3-0.4 3-1 0-0.6-0.7-1-1.5-1-0.8 0-2.9-1.2-4.6-2.8-1.8-1.5-4.1-4.5-5.1-6.7-1.2-2.2-2.1-6.2-2.1-9-0.1-2.8 0.4-7 1.1-9.5 0.7-2.5 2.9-6.5 5-8.9 2-2.4 5.1-5 6.7-5.9 1.8-0.9 4.4-1.2 6.5-0.9 1.9 0.3 4.3 0.8 5.3 1.1 1.5 0.5 1.6 0.2 0.6-3.2-0.6-2-2.3-5.9-3.7-8.5-1.5-2.7-4.1-5.7-5.7-6.8-1.6-1-4.6-1.8-6.5-1.8-1.9 0-4.9 0.7-6.5 1.6z"/>
		<path id="Path 7" class="s2" d="m239 424.1c-3.6 0.5-9.2 1.8-12.5 2.9-3.3 1.1-8 3.3-10.5 5-2.5 1.6-5.6 3.9-7 5.1-1.5 1.3-3.2 1.9-4.3 1.5-1.3-0.4-1.6-1.4-1.3-3.9 0.2-1.7 0.6-4.1 0.8-5.1 0.2-1.4-0.5-2.2-2.2-2.7-1.4-0.4-5.3-0.7-8.8-0.8-4.4-0.1-7.7 0.5-11.3 2.1-3.1 1.4-5.9 3.5-7 5.3-1 1.6-1.9 4.5-1.9 6.2 0 2.3 1 4.4 3.3 6.9 1.7 2 4.4 4.3 6 5 1.5 0.8 3.1 1.2 3.7 0.9 0.6-0.3 1-0.2 1 0.2 0 0.5 2.6 1.4 5.7 2 3.2 0.7 9.7 1.3 14.6 1.3 4.8 0 8.9-0.4 9.2-1 0.3-0.6 0.9-0.8 1.5-0.5 0.6 0.3 4-0.2 7.8-1.1 3.7-0.9 9.5-2.9 13-4.5 3.4-1.6 6.2-3.2 6.2-3.7 0-0.4 1.4-1.2 3.2-1.9 1.8-0.6 5.1-2.8 7.3-4.8 2.2-1.9 5.7-5.2 7.8-7.3 2.1-2 3.8-4.3 3.7-5 0-0.6-0.8-1.5-1.7-1.8-1-0.3-5.9-0.7-10.8-0.8-4.9-0.2-11.9 0.1-15.5 0.5z"/>
		<path id="Path 8" class="s5" d="m175.5 374.6c-2.2 1.3-7.2 3.4-11 4.6-5.6 1.7-8.7 2-15.5 1.6q-8.5-0.5-13.3-2.7c-2.6-1.1-4.7-1.8-4.7-1.4 0 0.5 1.3 2.8 2.9 5.3 1.6 2.5 5.1 6.5 7.8 8.9 2.6 2.5 7.1 5.5 9.8 6.7 2.8 1.2 7.9 3.1 11.5 4.2 3.6 1.1 11.6 2.7 17.8 3.6 6.1 0.9 16.7 1.6 23.4 1.6 6.8 0 16.1-0.5 20.8-1 4.7-0.6 13.2-2 19-3.1 5.8-1 12.8-2.7 15.5-3.5 2.8-0.9 8.1-3 11.8-4.8l6.9-3.1c-12.6-6.2-13.4-6.4-15.5-5-1.2 0.8-6.7 2.6-12.2 4.1-7.9 2.2-12.1 2.8-20 2.8-7.6-0.1-11.7-0.6-17-2.3-3.8-1.3-9.9-3.8-13.5-5.7-3.6-1.8-9.3-5.6-12.8-8.4-3.4-2.7-6.5-5-7-5-0.4 0-2.5 1.2-4.7 2.6z"/>
	</g>
</svg>